# xmcd
#
# Track frame offsets:
#	182
#	13930
#	29687
#	44832
#	61942
#	74580
#	86080
#	99177
#	115125
#	129057
#	147340
#	158157
#	172297
#	189875
#	206885
#	223070
#	241722
#
# Disc length: 3456 seconds
#
# Revision: 4
# Processed by: cddbd v1.5.2PL0 Copyright (c) Steve Scherf et al.
# Submitted via: EasyCDDAExtractor 15.3.0.1
#
DISCID=fb0d7e11
DTITLE=Yuri - Mis Mejores Canciones - 17 Super Exitos
DYEAR=1993
DGENRE=Latin
TTITLE0=Que Te Pasa
TTITLE1=Primer Amor
TTITLE2=Tiempos Mejores
TTITLE3=Yo Te Pido Amor
TTITLE4=Mama Dame
TTITLE5=No Se Que Tienes Tu
TTITLE6=Deja
TTITLE7=Un Corazon Herido
TTITLE8=Dame Un Beso
TTITLE9=Esperanzas
TTITLE10=Llena De Dulzura
TTITLE11=Amo
TTITLE12=Cuando Baja La Marea
TTITLE13=Es Ella Mas Que Yo
TTITLE14=Dejala
TTITLE15=Karma Kamaleon
TTITLE16=Este Amor No Se Toca
EXTD=
EXTT0=
EXTT1=
EXTT2=
EXTT3=
EXTT4=
EXTT5=
EXTT6=
EXTT7=
EXTT8=
EXTT9=
EXTT10=
EXTT11=
EXTT12=
EXTT13=
EXTT14=
EXTT15=
EXTT16=
PLAYORDER=
